<svg width="44" height="20" fill="none" xmlns="http://www.w3.org/2000/svg"><g filter="url('#filter0_i_1_1489')"><rect x="1" y="1" width="18" height="18" rx="4" fill="#fff"/><rect x=".5" y=".5" width="19" height="19" rx="4.5" stroke="#E5E6E8"/><path d="M6.9 15.32c-.404 0-.775-.1-1.113-.299a2.285 2.285 0 0 1-.806-.805 2.156 2.156 0 0 1-.298-1.114c0-.407.1-.779.298-1.113.199-.338.468-.609.806-.81a2.13 2.13 0 0 1 1.113-.304h1.094v-1.76H6.9c-.404 0-.775-.1-1.113-.298a2.246 2.246 0 0 1-.806-.8 2.166 2.166 0 0 1-.298-1.12c0-.407.1-.778.298-1.113.199-.335.468-.601.806-.8A2.13 2.13 0 0 1 6.9 4.68c.408 0 .78.102 1.114.304.338.199.606.465.805.8.202.335.304.706.304 1.114v1.084h1.764V6.898c0-.408.1-.78.299-1.114a2.26 2.26 0 0 1 .8-.8 2.139 2.139 0 0 1 1.119-.304c.407 0 .779.102 1.113.304.335.199.602.465.8.8.2.335.3.706.3 1.114 0 .407-.1.78-.3 1.118a2.258 2.258 0 0 1-.8.8 2.14 2.14 0 0 1-1.113.3h-1.089v1.759h1.089c.407 0 .779.101 1.113.303.335.202.602.473.8.81.2.335.3.707.3 1.114 0 .405-.1.776-.3 1.114a2.298 2.298 0 0 1-.8.805 2.14 2.14 0 0 1-1.113.299c-.408 0-.78-.1-1.119-.299a2.3 2.3 0 0 1-.8-.805 2.157 2.157 0 0 1-.299-1.114v-1.094H9.123v1.094c0 .405-.102.776-.304 1.114a2.285 2.285 0 0 1-.805.805 2.14 2.14 0 0 1-1.114.299Zm0-1.134c.202 0 .385-.048.547-.144.166-.096.298-.227.398-.393.1-.165.149-.348.149-.547v-1.094H6.9c-.199 0-.381.05-.547.15a1.102 1.102 0 0 0-.397.392 1.08 1.08 0 0 0-.145.552 1.07 1.07 0 0 0 .542.94c.166.096.348.144.547.144Zm0-6.204h1.094V6.898c0-.202-.05-.385-.15-.547a1.102 1.102 0 0 0-.397-.393 1.053 1.053 0 0 0-.547-.144 1.07 1.07 0 0 0-.547.144 1.102 1.102 0 0 0-.397.393 1.053 1.053 0 0 0-.145.547c0 .202.048.386.145.552.099.162.232.291.397.387.166.097.348.145.547.145Zm5.116 0h1.089c.202 0 .384-.048.547-.145a1.087 1.087 0 0 0 .387-1.486 1.053 1.053 0 0 0-.935-.537 1.08 1.08 0 0 0-.944.537 1.053 1.053 0 0 0-.144.547v1.084Zm1.089 6.204a1.053 1.053 0 0 0 .934-.537c.1-.165.15-.348.15-.547 0-.202-.05-.386-.15-.552a1.075 1.075 0 0 0-.934-.542h-1.089v1.094a1.07 1.07 0 0 0 .537.94c.166.096.35.144.552.144Zm-3.982-3.311h1.764v-1.76H9.123v1.76Z" fill="#B3B4CE"/></g><g filter="url('#filter1_i_1_1489')"><rect x="25" y="1" width="18" height="18" rx="4" fill="#fff"/><rect x="24.5" y=".5" width="19" height="19" rx="4.5" stroke="#E5E6E8"/><path d="M30.06 15.09V4.91h1.536V9.77h.125l4.27-4.862h1.934L33.82 9.493l4.121 5.598h-1.85l-3.29-4.55-1.204 1.383v3.167H30.06Z" fill="#B3B4CE"/></g><defs><filter id="filter0_i_1_1489" x="0" y="-1" width="20" height="21" filterUnits="userSpaceOnUse" color-interpolation-filters="sRGB"><feFlood flood-opacity="0" result="BackgroundImageFix"/><feBlend in="SourceGraphic" in2="BackgroundImageFix" result="shape"/><feColorMatrix in="SourceAlpha" values="0 0 0 0 0 0 0 0 0 0 0 0 0 0 0 0 0 0 127 0" result="hardAlpha"/><feOffset dy="-1"/><feGaussianBlur stdDeviation="2"/><feComposite in2="hardAlpha" operator="arithmetic" k2="-1" k3="1"/><feColorMatrix values="0 0 0 0 0 0 0 0 0 0 0 0 0 0 0 0 0 0 0.05 0"/><feBlend in2="shape" result="effect1_innerShadow_1_1489"/></filter><filter id="filter1_i_1_1489" x="24" y="-1" width="20" height="21" filterUnits="userSpaceOnUse" color-interpolation-filters="sRGB"><feFlood flood-opacity="0" result="BackgroundImageFix"/><feBlend in="SourceGraphic" in2="BackgroundImageFix" result="shape"/><feColorMatrix in="SourceAlpha" values="0 0 0 0 0 0 0 0 0 0 0 0 0 0 0 0 0 0 127 0" result="hardAlpha"/><feOffset dy="-1"/><feGaussianBlur stdDeviation="2"/><feComposite in2="hardAlpha" operator="arithmetic" k2="-1" k3="1"/><feColorMatrix values="0 0 0 0 0 0 0 0 0 0 0 0 0 0 0 0 0 0 0.05 0"/><feBlend in2="shape" result="effect1_innerShadow_1_1489"/></filter></defs></svg>