<svg width="44" height="20" viewBox="0 0 44 20" fill="none" xmlns="http://www.w3.org/2000/svg">
<g filter="url('#filter0_i_1_1489')">
<rect x="1" y="1" width="18" height="18" rx="4" fill="white"></rect>
<rect x="0.5" y="0.5" width="19" height="19" rx="4.5" stroke="#E5E6E8"></rect>
<path d="M6.90021 15.3196C6.49585 15.3196 6.12464 15.2202 5.78657 15.0213C5.4485 14.8192 5.18004 14.5507 4.98117 14.2159C4.78231 13.8779 4.68288 13.5067 4.68288 13.1023C4.68288 12.6946 4.78231 12.3234 4.98117 11.9887C5.18004 11.6506 5.4485 11.3805 5.78657 11.1783C6.12464 10.9761 6.49585 10.875 6.90021 10.875H7.99396V9.11508H6.90021C6.49585 9.11508 6.12464 9.01565 5.78657 8.81678C5.4485 8.61792 5.18004 8.35111 4.98117 8.01636C4.78231 7.67829 4.68288 7.30542 4.68288 6.89775C4.68288 6.49008 4.78231 6.11887 4.98117 5.78411C5.18004 5.44936 5.4485 5.18255 5.78657 4.98369C6.12464 4.78151 6.49585 4.68042 6.90021 4.68042C7.30788 4.68042 7.67909 4.78151 8.01384 4.98369C8.35191 5.18255 8.62038 5.44936 8.81924 5.78411C9.02142 6.11887 9.12251 6.49008 9.12251 6.89775V7.98156H10.8874V6.89775C10.8874 6.49008 10.9869 6.11887 11.1857 5.78411C11.3846 5.44936 11.6514 5.18255 11.9861 4.98369C12.3242 4.78151 12.6971 4.68042 13.1048 4.68042C13.5124 4.68042 13.8836 4.78151 14.2184 4.98369C14.5531 5.18255 14.82 5.44936 15.0188 5.78411C15.2177 6.11887 15.3171 6.49008 15.3171 6.89775C15.3171 7.30542 15.2177 7.67829 15.0188 8.01636C14.82 8.35111 14.5531 8.61792 14.2184 8.81678C13.8836 9.01565 13.5124 9.11508 13.1048 9.11508H12.016V10.875H13.1048C13.5124 10.875 13.8836 10.9761 14.2184 11.1783C14.5531 11.3805 14.82 11.6506 15.0188 11.9887C15.2177 12.3234 15.3171 12.6946 15.3171 13.1023C15.3171 13.5067 15.2177 13.8779 15.0188 14.2159C14.82 14.5507 14.5531 14.8192 14.2184 15.0213C13.8836 15.2202 13.5124 15.3196 13.1048 15.3196C12.6971 15.3196 12.3242 15.2202 11.9861 15.0213C11.6514 14.8192 11.3846 14.5507 11.1857 14.2159C10.9869 13.8779 10.8874 13.5067 10.8874 13.1023V12.0085H9.12251V13.1023C9.12251 13.5067 9.02142 13.8779 8.81924 14.2159C8.62038 14.5507 8.35191 14.8192 8.01384 15.0213C7.67909 15.2202 7.30788 15.3196 6.90021 15.3196ZM6.90021 14.1861C7.10238 14.1861 7.28468 14.138 7.44708 14.0419C7.6128 13.9458 7.74538 13.8149 7.84481 13.6492C7.94424 13.4835 7.99396 13.3012 7.99396 13.1023V12.0085H6.90021C6.70134 12.0085 6.51905 12.0583 6.35333 12.1577C6.18761 12.2538 6.05504 12.3847 5.9556 12.5504C5.85949 12.7162 5.81143 12.9001 5.81143 13.1023C5.81143 13.3012 5.85949 13.4835 5.9556 13.6492C6.05504 13.8149 6.18761 13.9458 6.35333 14.0419C6.51905 14.138 6.70134 14.1861 6.90021 14.1861ZM6.90021 7.98156H7.99396V6.89775C7.99396 6.69557 7.94424 6.51328 7.84481 6.35087C7.74538 6.18515 7.6128 6.05424 7.44708 5.95812C7.28468 5.862 7.10238 5.81394 6.90021 5.81394C6.70134 5.81394 6.51905 5.862 6.35333 5.95812C6.18761 6.05424 6.05504 6.18515 5.9556 6.35087C5.85949 6.51328 5.81143 6.69557 5.81143 6.89775C5.81143 7.09993 5.85949 7.28388 5.9556 7.4496C6.05504 7.612 6.18761 7.74126 6.35333 7.83738C6.51905 7.9335 6.70134 7.98156 6.90021 7.98156ZM12.016 7.98156H13.1048C13.3069 7.98156 13.4892 7.9335 13.6516 7.83738C13.814 7.74126 13.9433 7.612 14.0394 7.4496C14.1388 7.28388 14.1886 7.09993 14.1886 6.89775C14.1886 6.69557 14.1388 6.51328 14.0394 6.35087C13.9433 6.18515 13.814 6.05424 13.6516 5.95812C13.4892 5.862 13.3069 5.81394 13.1048 5.81394C12.9026 5.81394 12.7186 5.862 12.5529 5.95812C12.3872 6.05424 12.2563 6.18515 12.1601 6.35087C12.064 6.51328 12.016 6.69557 12.016 6.89775V7.98156ZM13.1048 14.1861C13.3069 14.1861 13.4892 14.138 13.6516 14.0419C13.814 13.9458 13.9433 13.8149 14.0394 13.6492C14.1388 13.4835 14.1886 13.3012 14.1886 13.1023C14.1886 12.9001 14.1388 12.7162 14.0394 12.5504C13.9433 12.3847 13.814 12.2538 13.6516 12.1577C13.4892 12.0583 13.3069 12.0085 13.1048 12.0085H12.016V13.1023C12.016 13.3012 12.064 13.4835 12.1601 13.6492C12.2563 13.8149 12.3872 13.9458 12.5529 14.0419C12.7186 14.138 12.9026 14.1861 13.1048 14.1861ZM9.12251 10.875H10.8874V9.11508H9.12251V10.875Z" fill="#B3B4CE"></path>
</g>
<g filter="url('#filter1_i_1_1489')">
<rect x="25" y="1" width="18" height="18" rx="4" fill="white"></rect>
<rect x="24.5" y="0.5" width="19" height="19" rx="4.5" stroke="#E5E6E8"></rect>
<path d="M30.06 15.0909V4.90912H31.5962V9.77134H31.7205L35.9911 4.90912H37.9251L33.8185 9.49293L37.94 15.0909H36.0906L32.7994 10.5419L31.5962 11.924V15.0909H30.06Z" fill="#B3B4CE"></path>
</g>
<defs>
<filter id="filter0_i_1_1489" x="0" y="-1" width="20" height="21" filterUnits="userSpaceOnUse" color-interpolation-filters="sRGB">
<feFlood flood-opacity="0" result="BackgroundImageFix"></feFlood>
<feBlend mode="normal" in="SourceGraphic" in2="BackgroundImageFix" result="shape"></feBlend>
<feColorMatrix in="SourceAlpha" type="matrix" values="0 0 0 0 0 0 0 0 0 0 0 0 0 0 0 0 0 0 127 0" result="hardAlpha"></feColorMatrix>
<feOffset dy="-1"></feOffset>
<feGaussianBlur stdDeviation="2"></feGaussianBlur>
<feComposite in2="hardAlpha" operator="arithmetic" k2="-1" k3="1"></feComposite>
<feColorMatrix type="matrix" values="0 0 0 0 0 0 0 0 0 0 0 0 0 0 0 0 0 0 0.05 0"></feColorMatrix>
<feBlend mode="normal" in2="shape" result="effect1_innerShadow_1_1489"></feBlend>
</filter>
<filter id="filter1_i_1_1489" x="24" y="-1" width="20" height="21" filterUnits="userSpaceOnUse" color-interpolation-filters="sRGB">
<feFlood flood-opacity="0" result="BackgroundImageFix"></feFlood>
<feBlend mode="normal" in="SourceGraphic" in2="BackgroundImageFix" result="shape"></feBlend>
<feColorMatrix in="SourceAlpha" type="matrix" values="0 0 0 0 0 0 0 0 0 0 0 0 0 0 0 0 0 0 127 0" result="hardAlpha"></feColorMatrix>
<feOffset dy="-1"></feOffset>
<feGaussianBlur stdDeviation="2"></feGaussianBlur>
<feComposite in2="hardAlpha" operator="arithmetic" k2="-1" k3="1"></feComposite>
<feColorMatrix type="matrix" values="0 0 0 0 0 0 0 0 0 0 0 0 0 0 0 0 0 0 0.05 0"></feColorMatrix>
<feBlend mode="normal" in2="shape" result="effect1_innerShadow_1_1489"></feBlend>
</filter>
</defs>
</svg>
